# xmcd
#
# Track frame offsets:
#	150
#	16338
#	35176
#	53365
#	78871
#	98965
#	119364
#	133301
#	145406
#	162281
#	176947
#
# Disc length: 2661 seconds
#
# Revision: 5
# Processed by: cddbd v1.5.2PL0 Copyright (c) Steve Scherf et al.
# Submitted via: dBpowerAMP V4.0
#
DISCID=970a630b
DTITLE=Dynamit-Band - Dynamit
DYEAR=2005
DGENRE=Folk
TTITLE0=Dynamit
TTITLE1=Es ist so gut HERR mit Dir
TTITLE2=Jesus Du bist das Wort
TTITLE3=Anbetung
TTITLE4=Ich komme zu Dir
TTITLE5=In Ihm (ist uns alles möglich)
TTITLE6=Ich hab's erkannt
TTITLE7=Ich bin so froh in Dir zu sein
TTITLE8=Aus Dir bin ich geboren
TTITLE9=Happy Party
TTITLE10=Ich will versinken HERR in Dir
EXTD=
EXTT0=
EXTT1=
EXTT2=
EXTT3=
EXTT4=
EXTT5=
EXTT6=
EXTT7=
EXTT8=
EXTT9=
EXTT10=
PLAYORDER=
